<svg width="23" height="24" viewBox="0 0 23 24" fill="none" xmlns="http://www.w3.org/2000/svg">
<g clip-path="url(#clip0_3_1577)">
<path d="M9.735 16.6155H3.70857V14.7612H9.735C10.3272 14.7614 10.9081 14.9237 11.4146 15.2304C11.9212 15.5371 12.3342 15.9767 12.6088 16.5014C12.8835 17.026 13.0093 17.6159 12.9726 18.2069C12.936 18.798 12.7383 19.3678 12.401 19.8545C12.0636 20.3413 11.5995 20.7265 11.059 20.9683C10.5184 21.2101 9.92192 21.2994 9.33421 21.2265C8.74651 21.1535 8.18997 20.9212 7.7249 20.5545C7.25982 20.1879 6.90395 19.701 6.69583 19.1466L8.43237 18.4948C8.52154 18.7324 8.67404 18.9411 8.87334 19.0982C9.07264 19.2554 9.31115 19.355 9.56303 19.3863C9.8149 19.4176 10.0705 19.3793 10.3022 19.2757C10.5339 19.1721 10.7328 19.007 10.8774 18.7984C11.022 18.5898 11.1067 18.3456 11.1225 18.0923C11.1382 17.839 11.0843 17.5862 10.9666 17.3613C10.8489 17.1365 10.6719 16.9481 10.4548 16.8166C10.2377 16.6851 9.98881 16.6156 9.735 16.6155ZM4.63571 11.0526H17.1521C17.7444 11.0528 18.3252 11.2151 18.8318 11.5218C19.3384 11.8286 19.7513 12.2681 20.026 12.7928C20.3006 13.3175 20.4264 13.9073 20.3898 14.4984C20.3531 15.0894 20.1554 15.6592 19.8181 16.146C19.4808 16.6327 19.0167 17.0179 18.4761 17.2597C17.9355 17.5015 17.3391 17.5908 16.7514 17.5179C16.1637 17.445 15.6071 17.2126 15.142 16.846C14.677 16.4793 14.3211 15.9924 14.113 15.438L15.8495 14.7862C15.9387 15.0238 16.0912 15.2325 16.2905 15.3897C16.4898 15.5468 16.7283 15.6464 16.9802 15.6777C17.232 15.709 17.4877 15.6707 17.7194 15.5671C17.951 15.4635 18.15 15.2984 18.2946 15.0899C18.4391 14.8813 18.5239 14.6371 18.5396 14.3837C18.5553 14.1304 18.5014 13.8776 18.3837 13.6528C18.2661 13.4279 18.0891 13.2395 17.872 13.108C17.6549 12.9766 17.406 12.907 17.1521 12.9069H4.63571C3.89803 12.9069 3.19057 12.6138 2.66895 12.0922C2.14733 11.5706 1.85429 10.8631 1.85429 10.1255C1.85429 9.38778 2.14733 8.68031 2.66895 8.15869C3.19057 7.63707 3.89803 7.34403 4.63571 7.34403H12.5164C12.7702 7.34392 13.0192 7.27436 13.2363 7.14288C13.4534 7.01141 13.6303 6.82302 13.748 6.59815C13.8657 6.37328 13.9196 6.12048 13.9039 5.86716C13.8882 5.61384 13.8034 5.36966 13.6588 5.16106C13.5143 4.95246 13.3153 4.78741 13.0836 4.68379C12.852 4.58017 12.5963 4.54192 12.3445 4.5732C12.0926 4.60448 11.8541 4.70409 11.6548 4.86124C11.4555 5.01839 11.303 5.22708 11.2138 5.46471L9.47725 4.81386C9.74471 4.10256 10.2533 3.50764 10.9143 3.13277C11.5753 2.7579 12.3469 2.62683 13.0946 2.76241C13.8423 2.89799 14.5188 3.29162 15.0061 3.87471C15.4934 4.4578 15.7607 5.19339 15.7614 5.95331C15.7614 6.81394 15.4195 7.63932 14.811 8.24787C14.2024 8.85643 13.3771 9.19831 12.5164 9.19831H4.63571C4.38982 9.19831 4.154 9.29599 3.98013 9.46987C3.80625 9.64374 3.70857 9.87956 3.70857 10.1255C3.70857 10.3713 3.80625 10.6072 3.98013 10.781C4.154 10.9549 4.38982 11.0526 4.63571 11.0526Z" fill="#838BAA"/>
</g>
<defs>
<clipPath id="clip0_3_1577">
<rect width="22.2514" height="22.2514" fill="white" transform="translate(0 0.854248)"/>
</clipPath>
</defs>
</svg>
